<?xml version="1.0" encoding="utf-8"?>
<!-- Generator: Adobe Illustrator 19.0.0, SVG Export Plug-In . SVG Version: 6.00 Build 0)  -->
<svg version="1.1" id="logo" xmlns="http://www.w3.org/2000/svg" xmlns:xlink="http://www.w3.org/1999/xlink" x="0px" y="0px"
	 width="148px" height="148px" viewBox="0 0 148 148" style="enable-background:new 0 0 148 148;" xml:space="preserve">
<style type="text/css">
	.st0{fill:#F1F2F2;}
</style>
<path id="XMLID_59_" d="M0,0v148h148V0H0z M95,121l-11-11l12-12H60V54H44v44H28V38h48v44h20L84,70l11-11l31,31L95,121z"/>
<polygon id="XMLID_6_" class="st0" points="28,98 28,38 76,38 76,82 96,82 84,70 95,59 126,90 95,121 84,110 96,98 60,98 60,54 
	44,54 44,98 "/>
<g id="XMLID_109_">
</g>
<g id="XMLID_110_">
</g>
<g id="XMLID_111_">
</g>
<g id="XMLID_112_">
</g>
<g id="XMLID_113_">
</g>
<g id="XMLID_114_">
</g>
</svg>
