<?xml version="1.0" encoding="utf-8"?>
<!-- Generator: Adobe Illustrator 19.0.0, SVG Export Plug-In . SVG Version: 6.00 Build 0)  -->
<svg version="1.1" id="logo" xmlns="http://www.w3.org/2000/svg" xmlns:xlink="http://www.w3.org/1999/xlink" x="0px" y="0px"
	 width="148px" height="148px" viewBox="0 0 148 148" style="enable-background:new 0 0 148 148;" xml:space="preserve">
<style type="text/css">
	.st0{display:none;}
	.st1{fill:#F1F2F2;}
</style>
<path id="XMLID_59_" class="st0" d="M0,0v148h148V0H0z M95,121l-11-11l12-12H60V54H44v44H28V38h48v44h20L84,70l11-11l31,31L95,121z"
	/>
<path id="XMLID_10_" d="M74,1C33.7,1,1,33.7,1,74s32.7,73,73,73s73-32.7,73-73S114.3,1,74,1z M95,121l-11-11l12-12H60V54H44v44H28
	V38h48v44h20L84,70l11-11l31,31L95,121z"/>
<polygon id="XMLID_6_" class="st1" points="28,98 28,38 76,38 76,82 96,82 84,70 95,59 126,90 95,121 84,110 96,98 60,98 60,54 
	44,54 44,98 "/>
<g id="XMLID_1_">
</g>
<g id="XMLID_2_">
</g>
<g id="XMLID_3_">
</g>
<g id="XMLID_4_">
</g>
<g id="XMLID_5_">
</g>
<g id="XMLID_11_">
</g>
</svg>
