<?xml version="1.0" standalone="no"?>
<!DOCTYPE svg PUBLIC "-//W3C//DTD SVG 20010904//EN"
 "http://www.w3.org/TR/2001/REC-SVG-20010904/DTD/svg10.dtd">
<svg version="1.0" xmlns="http://www.w3.org/2000/svg"
 width="256.000000pt" height="256.000000pt" viewBox="0 0 256.000000 256.000000"
 preserveAspectRatio="xMidYMid meet">
<metadata>
Created by potrace 1.11, written by Peter Selinger 2001-2013
</metadata>
<g transform="translate(0.000000,256.000000) scale(0.100000,-0.100000)"
fill="#000000" stroke="none">
<path d="M0 1280 l0 -1280 1280 0 1280 0 0 1280 0 1280 -1280 0 -1280 0 0
-1280z m1320 260 l0 -440 197 0 198 0 -120 120 -120 120 113 113 112 112 312
-313 313 -312 -313 -312 -312 -313 -112 112 -113 113 120 120 120 120 -358 0
-357 0 0 440 0 440 -160 0 -160 0 0 -440 0 -440 -160 0 -160 0 0 600 0 600
480 0 480 0 0 -440z"/>
</g>
</svg>
